<svg xmlns="http://www.w3.org/2000/svg" viewBox="606 304 300 347">
  <g transform="translate(0 1024) scale(.1 -.1)" fill="#43345F" stroke="none">
    <path d="M7850 7082 c-81 -27 -112 -46 -178 -107 -118 -109 -215 -280 -292
-515 -41 -124 -105 -386 -125 -512 -3 -20 -13 -39 -23 -43 -38 -17 -236 -17
-312 -1 -158 33 -307 132 -392 262 -50 76 -88 96 -128 66 -60 -45 -28 -157 81
-275 153 -168 348 -247 607 -247 122 0 133 -1 128 -17 -3 -10 -28 -142 -56
-293 -85 -462 -133 -658 -191 -772 -11 -21 -19 -44 -19 -51 0 -18 264 -118
376 -143 58 -13 122 -17 239 -17 140 0 172 3 259 26 314 84 550 294 672 601
18 45 40 116 48 158 20 96 21 309 2 398 -8 36 -13 66 -11 68 5 5 89 -108 128
-173 52 -86 103 -209 129 -311 33 -129 32 -372 0 -494 -51 -190 -170 -372
-315 -481 -157 -118 -294 -168 -487 -176 -270 -12 -446 55 -760 286 -149 109
-295 185 -400 207 -171 36 -386 2 -505 -81 -128 -87 -200 -254 -166 -380 37
-138 159 -219 346 -232 209 -14 430 120 534 325 12 23 26 42 31 42 5 0 56 -31
114 -70 199 -134 350 -200 541 -236 134 -25 376 -15 502 20 375 104 645 393
723 774 25 123 27 323 5 438 -64 337 -277 640 -539 770 -130 64 -168 27 -96
-93 70 -116 85 -182 85 -368 0 -184 -13 -247 -76 -384 -110 -237 -324 -409
-594 -476 -98 -25 -121 -27 -230 -22 -109 4 -209 20 -227 36 -4 3 5 44 18 91
14 47 38 144 54 215 29 128 170 856 170 876 0 6 24 20 53 32 277 113 514 321
631 553 59 118 87 232 89 359 2 134 -16 202 -72 273 -56 71 -126 103 -233 108
-62 3 -97 0 -138 -14z m192 -199 c40 -36 52 -74 51 -160 -4 -188 -122 -415
-296 -566 -104 -91 -247 -180 -247 -155 0 7 16 91 36 188 79 388 193 632 326
699 49 25 99 23 130 -6z m-1229 -2560 c54 -19 54 -19 4 -102 -63 -105 -175
-186 -275 -198 -63 -7 -92 0 -131 33 -27 22 -31 33 -31 73 0 162 233 266 433
194z" />
  </g>
</svg>
